<?xml version="1.0" encoding="UTF-8"?>
<!DOCTYPE svg PUBLIC "-//W3C//DTD SVG 1.1//EN" "http://www.w3.org/Graphics/SVG/1.1/DTD/svg11.dtd">
<!-- Creator: CorelDRAW -->
<svg xmlns="http://www.w3.org/2000/svg" xml:space="preserve" width="210mm" height="297mm" version="1.1" style="shape-rendering:geometricPrecision; text-rendering:geometricPrecision; image-rendering:optimizeQuality; fill-rule:evenodd; clip-rule:evenodd"
viewBox="0 0 21000 29700"
 xmlns:xlink="http://www.w3.org/1999/xlink"
 xmlns:sodipodi="http://sodipodi.sourceforge.net/DTD/sodipodi-0.dtd"
 xmlns:inkscape="http://www.inkscape.org/namespaces/inkscape"
 xmlns:rdf="http://www.w3.org/1999/02/22-rdf-syntax-ns#"
 xmlns:cc="http://creativecommons.org/ns#"
 xmlns:svg="http://www.w3.org/2000/svg"
 xmlns:dc="http://purl.org/dc/elements/1.1/"
 inkscape:version="0.92.2 (5c3e80d, 2017-08-06)">
 <defs>
  <style type="text/css">
   <![CDATA[
    .fil1 {fill:black}
    .fil0 {fill:#652672}
   ]]>
  </style>
 </defs>
 <g id="Layer_x0020_1">
  <metadata id="CorelCorpID_0Corel-Layer"/>
  <g id="Halal_x0020_Indonesia.cdr">
   <sodipodi:namedview bordercolor="#666666" borderopacity="1" fit-margin-bottom="0" fit-margin-left="0" fit-margin-right="0" fit-margin-top="0" gridtolerance="10" guidetolerance="10" id="namedview49" inkscape:current-layer="Layer_1" inkscape:cx="310.10118" inkscape:cy="584" inkscape:pageopacity="0" inkscape:pageshadow="2" inkscape:window-height="837" inkscape:window-maximized="1" inkscape:window-width="1600" inkscape:window-x="-8" inkscape:window-y="-8" inkscape:zoom="0.184375" objecttolerance="10" pagecolor="#ffffff" showgrid="false"/>
   <path id="path4" class="fil0" d="M11173 8483l-309 395 -5 8883c0,28 -22,52 -52,52l-2606 9c0,0 -89,-61 -89,-185 0,-125 -9,-236 -9,-237l0 0 -533 -14 0 0c0,0 -125,833 501,918 0,0 0,0 1,0l4958 0c6,0 16,-2 22,-3 81,-13 171,-49 271,-158 135,-146 149,-268 155,-386 -3,-360 -29,-726 -18,-1107 1,-41 26,-96 57,-122l16 -15c2,-1 3,-2 4,-2 40,-29 647,-477 873,-1459 251,-1085 -334,-2085 -584,-2502 -1059,-1767 -1835,-2961 -1835,-2961l0 7132 542 0 0 -5297c0,0 459,625 1126,1918 39,74 459,876 167,1794 -144,453 -667,1001 -667,1001 0,0 -167,124 -167,375l0 1083 0 0c0,3 41,208 -167,208l-1418 0 0 -8938 -234 -382z" inkscape:connector-curvature="0"/>
   <path id="path6" class="fil0" d="M6743 21935l-167 0 0 -584 167 0 0 584zm-84 -84l0 -417 0 417z" inkscape:connector-curvature="0"/>
   <path id="path8" class="fil0" d="M7790 21935l-161 0 -190 -282c-8,-12 -17,-25 -25,-36 0,17 0,35 0,53l0 265 -167 0 0 -584 157 0 191 261c8,11 16,22 23,32 2,-18 3,-35 5,-54l0 -239 167 0 0 584z" inkscape:connector-curvature="0"/>
   <path id="path10" class="fil0" d="M8461 21946c-49,0 -95,-3 -135,-6l-38 -4 0 -568 37 -5c53,-8 106,-11 159,-11 113,0 195,24 253,72 62,51 94,123 94,213 0,93 -32,172 -94,226 -62,54 -156,83 -276,83l0 0zm-6 -137c14,0 26,0 32,0 130,0 196,-58 196,-172 0,-45 -13,-81 -37,-105 -30,-30 -81,-47 -147,-47 -17,0 -32,1 -43,1l0 323 -1 0z" inkscape:connector-curvature="0"/>
   <path id="path12" class="fil0" d="M9582 21954c-173,0 -292,-122 -292,-296 0,-180 123,-306 301,-306 173,0 293,122 293,296 0,183 -121,306 -302,306l0 0zm5 -467c-101,0 -138,91 -138,168 0,78 43,162 137,162 96,0 138,-83 138,-166 0,-79 -44,-164 -137,-164z" inkscape:connector-curvature="0"/>
   <path id="path14" class="fil0" d="M10890 21935l-136 0 -190 -282c-4,-7 -9,-15 -14,-22 1,10 4,20 6,30l1 9 0 265 -167 0 0 -584 141 0 191 261c2,3 4,6 6,10 -2,-7 -3,-14 -4,-20l-1 -8 0 -242 167 0 0 583z" inkscape:connector-curvature="0"/>
   <polygon id="polygon16" class="fil0" points="11440,21352 11815,21352 11815,21476 11565,21476 11565,21560 11815,21560 11815,21686 11565,21686 11565,21778 11815,21778 11815,21935 11440,21935 "/>
   <path id="path18" class="fil0" d="M12514 21953c-61,0 -126,-16 -165,-38l-29 -17 45 -134 44 24c31,17 72,28 109,28 18,0 75,-3 75,-43 0,-15 0,-34 -78,-61 -42,-13 -175,-55 -175,-181 0,-103 93,-178 222,-178 74,0 121,18 143,29l33 17 -50 131 -41 -21c-15,-7 -46,-19 -88,-19 -44,0 -64,17 -64,34 0,13 0,29 83,58 80,27 171,73 171,187 2,91 -72,184 -235,184l0 0z" inkscape:connector-curvature="0"/>
   <path id="path20" class="fil0" d="M13392 21935l-167 0 0 -584 167 0 0 584zm-83 -84l0 -417 0 417z" inkscape:connector-curvature="0"/>
   <path id="path22" class="fil0" d="M14396 21935l-157 0 -63 -167 -152 0 -61 167 -155 0 221 -584 144 0 223 584zm-334 -265l77 0 -38 -103 -39 103z" inkscape:connector-curvature="0"/>
   <polygon id="path24" class="fil1" points="9645,20774 9709,20774 9709,20774 " inkscape:connector-curvature="0"/>
   <polygon id="path26" class="fil1" points="9642,20752 9706,20752 9706,20752 " inkscape:connector-curvature="0"/>
   <g id="g30">
    <path id="path28" class="fil0" d="M14346 20798l0 31c-31,0 -46,-10 -60,-25l-991 0 0 0 -104 0c0,-85 63,-52 104,-200l0 -1202c-41,-147 -105,-115 -104,-199l583 0c0,93 -76,45 -116,249l0 1009 597 -6c123,-22 115,-137 183,-124l-92 467z" inkscape:connector-curvature="0"/>
   </g>
   <g id="g34">
    <path id="path32" class="fil0" d="M11172 20798l0 31c-32,0 -46,-10 -61,-25l-990 0 0 0 -104 0c0,-85 62,-52 104,-200l0 -1202c-42,-147 -106,-115 -104,-199l584 0c0,93 -76,45 -116,249l0 1009 597 -6c122,-22 115,-137 183,-124l-93 467z" inkscape:connector-curvature="0"/>
   </g>
   <g id="g38">
    <path id="path36" class="fil0" d="M8063 20781l-584 0c0,-88 72,-47 112,-229l0 -423 -586 61 -2 372c40,171 110,132 110,219l-584 0c0,-91 75,-45 113,-241l0 -1099c-38,-196 -115,-151 -113,-241l584 0c0,86 -69,49 -109,217l1 459 590 -62 -3 -385c-40,-183 -113,-140 -112,-229l585 0c0,90 -75,45 -114,239l0 1103c39,194 114,150 112,239z" inkscape:connector-curvature="0"/>
   </g>
   <path id="path40" class="fil0" d="M13017 20734l-645 -1534 -220 2 0 -2 -127 0c-160,0 2,43 -3,129l-525 1377c-69,87 -99,34 -99,100l58 0 0 0 366 0 0 0 74 0c0,-41 -47,-25 -27,-107l85 -200 562 -32 79 239c24,89 -31,39 -34,102l76 0 317 0 64 0 61 0c6,-38 -34,-49 -62,-74l0 0zm-952 -518l164 -392 164 366 -328 26z" inkscape:connector-curvature="0"/>
   <path id="path42" class="fil0" d="M9822 20734l-645 -1534 -220 2 0 -2 -127 0c-161,0 1,43 -3,129l-525 1377c-69,87 -100,34 -100,100l59 0 0 0 366 0 0 0 74 0c0,-41 -47,-25 -27,-107l85 -200 562 -32 79 239c24,89 -32,39 -34,102l76 0 317 0 64 0 61 0c4,-38 -34,-49 -62,-74l0 0zm-952 -518l163 -392 165 366 -328 26z" inkscape:connector-curvature="0"/>
   <polygon id="polygon44" class="fil0" points="9614,16751 10167,16751 10167,10021 9614,10831 "/>
   <path id="path46" class="fil0" d="M10806 7966c-583,872 -1167,1744 -1750,2616 0,2051 0,4104 0,6155 -406,8 -811,15 -1218,24 -66,-28 -154,-70 -251,-131 -30,-19 -177,-112 -340,-275 -155,-156 -247,-298 -272,-339 -76,-121 -115,-213 -180,-369 -105,-251 -141,-413 -153,-472 -31,-157 -37,-273 -44,-419 -12,-257 2,-446 4,-489 4,-41 21,-242 72,-476 90,-413 240,-726 369,-991 183,-377 355,-644 550,-944 183,-282 347,-509 464,-668 0,315 2,630 2,945 -101,136 -219,310 -337,523 -46,83 -168,307 -298,639 -178,453 -279,711 -304,1081 -11,162 -30,503 114,901 87,240 197,403 234,455 171,240 366,390 494,475 191,0 383,0 574,0 -3,-1920 -7,-3840 -11,-5760 958,-1466 1666,-2535 1738,-2619 53,-62 115,-75 115,-75 41,-15 82,-3 117,6 46,14 78,37 141,79 40,28 104,71 170,128l0 0z" inkscape:connector-curvature="0"/>
  </g>
 </g>
</svg>
